<?xml version="1.0" encoding="utf-8"?>
<!-- Generator: Adobe Illustrator 24.0.1, SVG Export Plug-In . SVG Version: 6.00 Build 0)  -->
<svg version="1.1" id="a" xmlns="http://www.w3.org/2000/svg" xmlns:xlink="http://www.w3.org/1999/xlink" x="0px" y="0px"
	 viewBox="0 0 865.8 682.9" style="enable-background:new 0 0 865.8 682.9;" xml:space="preserve">
<style type="text/css">
	.st0{fill:#EBEBEB;}
	.st1{fill:#FFFFFF;}
	.st2{fill:#002346;}
	.st3{fill:#E0E0E0;}
	.st4{fill:#E6E7E8;}
	.st5{fill:#FAFAFA;}
	.st6{fill:#FEF6F6;}
	.st7{fill:#F2B3C1;}
	.st8{fill:#FF6A48;}
	.st9{fill:#E1E1E2;}
	.st10{fill:#1E2E60;}
	.st11{fill:#132142;}
	.st12{fill:#F25F46;}
	.st13{fill:#D0D5E2;}
</style>
<rect x="259.9" y="589.6" class="st0" width="44.7" height="0.4"/>
<rect x="146.5" y="592.7" class="st0" width="56.7" height="0.4"/>
<rect x="705.7" y="591.8" class="st0" width="23.6" height="0.4"/>
<rect x="642.6" y="591.8" class="st0" width="58.3" height="0.4"/>
<rect x="432.9" y="578.7" class="st0" width="45" height="0.4"/>
<rect x="484.3" y="578.7" class="st0" width="106.9" height="0.4"/>
<g>
	
		<rect x="434.6" y="426.8" transform="matrix(0.7071 -0.7071 0.7071 0.7071 -142.5349 541.6853)" class="st1" width="296" height="32.1"/>
	<path class="st2" d="M489.4,559.6L466,536.2l210-210l23.4,23.4L489.4,559.6z M467.3,536.2l22,22L698,349.5l-22-22L467.3,536.2z"/>
</g>
<polygon class="st3" points="598.8,449.4 576.1,426.7 545.2,457.6 566,490.9 "/>
<g>
	
		<rect x="449.8" y="450.6" transform="matrix(0.7071 -0.7071 0.7071 0.7071 -147.3403 556.235)" class="st4" width="296" height="10.7"/>
	<path class="st2" d="M496.9,565.2l-8.3-8.3l210.1-210l8.3,8.3L496.9,565.2L496.9,565.2z M490.1,556.9l6.9,6.9l208.6-208.6l-6.9-6.9
		L490.1,556.9z"/>
</g>
<g>
	
		<rect x="566.6" y="302.4" transform="matrix(0.7071 -0.7071 0.7071 0.7071 -147.8472 543.913)" class="st1" width="32.1" height="296"/>
	<path class="st2" d="M676,567.2l-210-210l23.4-23.4l210,210L676,567.2z M467.4,357.1L676,565.7l22-22L489.4,335.1L467.4,357.1z"/>
</g>
<g>
	
		<rect x="592.5" y="287.3" transform="matrix(0.7071 -0.7071 0.7071 0.7071 -132.6761 550.2277)" class="st4" width="10.7" height="296"/>
	<path class="st2" d="M698.7,544.4l-210-210l8.3-8.3l210,210.1L698.7,544.4L698.7,544.4z M490.1,334.4L698.7,543l6.9-6.9
		L496.9,327.5L490.1,334.4z"/>
</g>
<g>
	<rect x="508.9" y="407.4" class="st1" width="26.1" height="159.1"/>
	<path class="st2" d="M535.5,566.9h-27.1v-160h27.1V566.9z M509.4,565.9h25.1v-158h-25.1V565.9z"/>
</g>
<polygon class="st0" points="535,473.5 508.9,473.5 508.9,492.5 535,486.9 "/>
<g>
	<rect x="535" y="407.4" class="st4" width="8.7" height="159.1"/>
	<path class="st2" d="M544.2,567h-9.7V406.9h9.7V567z M535.5,566h7.7V407.9h-7.7V566z"/>
</g>
<rect x="548.7" y="430.7" class="st0" width="4.9" height="49"/>
<polygon class="st5" points="422.1,380.8 357,380.8 310.9,426.8 310.9,492 357,538.1 422.1,538.1 468.2,492 468.2,426.8 "/>
<path class="st1" d="M332.3,466.3l8.3-0.7c0.1,1.5,0.4,3,1.1,4.5s2.2,2.5,3.9,2.4c1.1,0.1,2.3-0.4,3-1.2c0.7-0.8,1-1.9,1-3
	c0-1-0.4-2-1-2.8c-1.3-1.2-2.8-2-4.5-2.3c-3.2-0.8-6-2.5-8.2-4.9c-1.7-2.2-2.6-5-2.5-7.8c0-2,0.4-4.1,1.3-5.9
	c0.8-1.8,2.1-3.3,3.8-4.3c2.1-1.2,4.6-1.7,7-1.6c3-0.2,6,0.8,8.3,2.9c1.9,1.9,3,5,3.4,9.1l-8.3,0.7c-0.1-1.4-0.5-2.8-1.4-4
	c-0.8-0.9-1.9-1.3-3-1.2c-0.9-0.1-1.7,0.3-2.3,0.9c-0.5,0.6-0.8,1.4-0.8,2.2c0,0.6,0.2,1.3,0.6,1.7c0.8,0.8,1.9,1.3,3,1.5
	c2.9,0.8,5.7,2,8.2,3.6c1.6,1.1,2.8,2.7,3.6,4.5c0.8,1.9,1.1,3.9,1.1,5.9c0,2.5-0.5,4.9-1.5,7.1c-0.9,2-2.4,3.8-4.2,5
	c-2.1,1.2-4.4,1.8-6.8,1.7c-4.8,0-8.1-1.3-10-4C333.6,473.2,332.5,469.8,332.3,466.3L332.3,466.3z"/>
<path class="st1" d="M360.5,439.2h26.7v10h-8.9v30.4h-8.8v-30.4h-8.9L360.5,439.2L360.5,439.2z"/>
<path class="st1" d="M388.6,459.5c0-6.6,1.3-11.7,3.9-15.4c4.4-6,12.9-7.3,18.9-2.9c1.1,0.8,2,1.7,2.8,2.8c2.6,3.6,3.9,8.6,3.9,15.1
	c0.1,3.9-0.5,7.9-1.7,11.6c-0.9,2.8-2.6,5.2-4.8,7c-2.3,1.7-5,2.6-7.9,2.5c-2.8,0.1-5.6-0.6-7.9-2.2c-2.3-1.8-4.1-4.1-5.1-6.9
	C389.2,467.5,388.5,463.5,388.6,459.5L388.6,459.5z M397.4,459.5c0,4.1,0.5,7,1.6,8.8c1.2,2.4,4.2,3.3,6.6,2.1l0,0
	c0.9-0.5,1.6-1.2,2.1-2.1c1-1.8,1.5-4.9,1.5-9.4c0.2-2.9-0.4-5.8-1.6-8.3c-0.9-1.6-2.6-2.6-4.5-2.6c-1.8,0-3.5,1-4.3,2.7
	c-1,1.9-1.5,4.9-1.5,9L397.4,459.5L397.4,459.5z"/>
<path class="st1" d="M422.7,439.2h14.6c2.8-0.2,5.4,1,7.1,3.2c1.7,2.7,2.6,5.9,2.4,9.2c0.2,3.4-0.7,6.7-2.6,9.5
	c-1.9,2.4-4.9,3.7-7.9,3.4h-4.9v15h-8.8L422.7,439.2z M431.4,456.4h2.1c1.3,0.1,2.6-0.3,3.6-1.3c0.7-0.9,1.1-2,1-3.2
	c0.1-1.1-0.2-2.3-0.8-3.3c-0.8-1-2.1-1.5-3.3-1.3h-2.6L431.4,456.4L431.4,456.4z"/>
<g>
	<path class="st6" d="M366.3,627.1c0.7-15,2.4-26.7,5.4-33.8c24.6-58,50.5-71.8,50.5-71.8l78.2,9.3c0,0,8.1,1.8,29.4,96.6
		L366.3,627.1L366.3,627.1z"/>
	<path class="st2" d="M530.4,627.8l-164.6-0.3V627c0.7-15.7,2.5-27.1,5.4-33.9c24.4-57.5,50.4-72,50.7-72.1l0.1-0.1l78.4,9.3
		c0.4,0.1,8.7,3,29.8,97L530.4,627.8L530.4,627.8z M366.8,626.6l162.3,0.3c-20-88.9-28.3-95.2-28.9-95.6l-78-9.2
		c-2,1.2-26.8,16.5-50.1,71.5C369.3,600.2,367.5,611.3,366.8,626.6L366.8,626.6z"/>
</g>
<g>
	<path class="st2" d="M580.8,492.9c-1.7-101.3-68.4-215.4-68.4-215.4v0.1c-1.3-2.5-21-26.3-40.5-22.5
		C410.8,266.9,298.6,431.4,278,455.3c-2.7,3.1,95.8,84.5,223.4,57.6C553.7,501.9,580.8,496.2,580.8,492.9L580.8,492.9z"/>
	<path class="st2" d="M449.4,518.8c-42.2,0-78.3-10.5-103.8-20.9c-40-16.4-65.3-37.2-67.9-41.6c-0.1-0.2-0.5-0.9-0.1-1.3
		c3.7-4.3,10.6-13.5,19.4-25.2c40.5-53.7,124.6-165.5,174.7-175.2c18.6-3.6,37,17,40.5,21.9l0.1-0.2l0.5,0.9
		c0.7,1.1,66.8,115.4,68.5,215.6l0,0c0,3.6-18.3,7.6-76.2,19.8l-3.6,0.8C483.3,517.2,465.9,518.8,449.4,518.8L449.4,518.8z
		 M278.4,455.5c0.3,0.9,4.1,5,12.6,11.3c15.9,11.7,100.5,68.7,210.2,45.6l3.6-0.8c45.4-9.6,75.4-15.9,75.5-18.8
		c-1.6-95.4-61.7-203.5-67.8-214.3l-0.1,0.2l-0.5-1c-1.1-2.1-20.8-25.9-40-22.2c-49.7,9.6-133.7,121.2-174.1,174.8
		C289.1,442,282.2,451.2,278.4,455.5L278.4,455.5z"/>
</g>
<g>
	<path class="st7" d="M454.3,327.7c0,0-5.5,51.5-6.1,55.6c0,0,23.1,24.3,45.5,1.9c0,0-3.8-12.3-10.7-43.8L454.3,327.7L454.3,327.7z"
		/>
	<path class="st2" d="M473,395.2c-0.1,0-0.2,0-0.3,0c-13.9-0.2-24.7-11.4-24.8-11.5l-0.2-0.2v-0.2c0.6-4,6-55.1,6.1-55.6l0.1-0.7
		l29.6,14.1v0.2c6.8,31.1,10.6,43.6,10.7,43.7l0.1,0.3l-0.2,0.2C487.6,392,480.5,395.2,473,395.2L473,395.2z M448.7,383.2
		c1.4,1.4,11.4,10.9,24,11c7.3,0.1,14.2-3,20.4-9.1c-0.6-2-4.3-14.9-10.5-43.3l-27.8-13.3C454,334.8,449.4,378,448.7,383.2
		L448.7,383.2z"/>
</g>
<g>
	<path class="st7" d="M503.9,316.2l-9.3-0.6l0.6-10.4l9.3,0.6c2.9,0.2,5,2.6,4.9,5.5l0,0C509.2,314.2,506.7,316.4,503.9,316.2z"/>
	<path class="st2" d="M504.1,316.7c-0.1,0-0.2,0-0.3,0l0,0l-9.8-0.6l0.7-11.4l9.8,0.6c3.1,0.2,5.5,2.9,5.4,6
		C509.7,314.4,507.1,316.7,504.1,316.7L504.1,316.7z M503.9,315.7c2.6,0.1,4.8-1.9,5-4.4c0.1-2.6-1.9-4.8-4.4-5l-8.8-0.5l-0.6,9.4
		L503.9,315.7L503.9,315.7z"/>
</g>
<g>
	<path class="st7" d="M441.1,305.3l9.3,0.6l-0.6,10.4l-9.3-0.6c-2.9-0.2-5-2.6-4.9-5.5l0,0C435.8,307.3,438.2,305.1,441.1,305.3z"/>
	<path class="st2" d="M450.2,316.7l-9.8-0.6c-3.1-0.2-5.5-2.9-5.4-6c0.2-3.1,2.9-5.5,6-5.4l0,0l9.8,0.6L450.2,316.7L450.2,316.7z
		 M440.8,305.7c-2.5,0-4.6,1.9-4.7,4.4c-0.1,2.6,1.9,4.8,4.4,5l8.8,0.5l0.6-9.4l-8.8-0.5C440.9,305.8,440.9,305.8,440.8,305.7
		L440.8,305.7z"/>
</g>
<g>
	<path class="st7" d="M472.9,272.8L472.9,272.8c16.3,0,29.5,13.2,29.5,29.5v13c0,16.3-13.2,29.5-29.5,29.5l0,0
		c-16.3,0-29.5-13.2-29.5-29.5v-13C443.4,286,456.6,272.8,472.9,272.8z"/>
	<path class="st2" d="M472.9,345.3c-16.5,0-30-13.5-30-30v-13c0-16.5,13.5-30,30-30s30,13.5,30,30v13
		C502.9,331.9,489.4,345.3,472.9,345.3z M472.9,273.3c-16,0-29,13-29,29v13c0,16,13,29,29,29l0,0c16,0,29-13,29-29v-13
		C501.9,286.3,488.9,273.3,472.9,273.3z"/>
</g>
<g>
	<path class="st2" d="M458.4,282c28.9,11.6,40.9,21.1,44,23.8c0.4,0.3,0.9,0.1,0.9-0.4c0.1-6.9-1.4-40.7-41.6-31.9
		C434.6,277.6,456.3,281.2,458.4,282L458.4,282z"/>
	<path class="st2" d="M502.8,306.5c-0.3,0-0.5-0.1-0.7-0.3c-3-2.6-15-12.1-43.9-23.7c-0.3-0.1-1-0.3-1.8-0.5
		c-4.7-1.1-8.8-2.4-8.7-4.2c0.1-1.2,1.7-2.9,14-4.7c13.4-3,24-1.4,31.2,4.5c10.4,8.5,11,23.5,10.9,27.8c0,0.4-0.2,0.8-0.6,0.9
		C503,306.5,502.9,306.5,502.8,306.5L502.8,306.5z M474,272.6c-3.7,0-7.8,0.5-12.2,1.4c-12.1,1.8-13.1,3.3-13.1,3.7
		c-0.1,1.2,6,2.7,8,3.2c0.9,0.2,1.6,0.4,1.9,0.5l0,0c29,11.6,41.1,21.3,44.2,23.9c0.1-4.3-0.4-18.9-10.5-27.1
		C487.6,274.6,481.5,272.6,474,272.6L474,272.6z"/>
</g>
<g>
	<path class="st2" d="M461.9,278.1c0,0-9.2,21.5-11.7,25.4c-2.9,4.5-9.1,1.1-9.1,1.1S438.2,274.4,461.9,278.1L461.9,278.1z"/>
	<path class="st2" d="M445.7,306.3c-2.5,0-4.9-1.2-4.9-1.3l-0.2-0.1v-0.3c-0.1-0.6-1.4-15.9,6.6-23.4c3.6-3.4,8.6-4.6,14.8-3.6
		l0.6,0.1l-0.3,0.6c-0.4,0.9-9.2,21.6-11.8,25.5C449.3,305.7,447.4,306.3,445.7,306.3L445.7,306.3z M441.5,304.3
		c1.1,0.5,5.8,2.5,8.2-1.1c2.3-3.4,9.9-21.2,11.4-24.7c-5.6-0.8-10.1,0.4-13.4,3.5C440.7,288.6,441.4,302.2,441.5,304.3L441.5,304.3
		z"/>
</g>
<g>
	<path class="st8" d="M493.6,385.2l68.5,18.4l12.8,36.5c3.8,10.9-1.9,22.8-12.8,26.6c-2.2,0.8-4.6,1.2-6.9,1.2h-34.3
		c0,0-7.2,47.9-7.2,66.4l-108.9-14.1l1.9-77c0,0-67.9,26.8-94.7,22.6c0,0-30.9-18.5-13.4-42.2c0,0,126.1-51.6,145.4-46.9
		c0,0,11.1,17.1,27.5,17.1S493.6,385.2,493.6,385.2L493.6,385.2z"/>
	<path class="st2" d="M514.2,534.9l-109.9-14.2l1.9-76.7c-6.7,2.6-60,22.8-87.9,22.8c-2.3,0-4.4-0.1-6.3-0.4l-0.2-0.1
		c-0.2-0.1-15.8-9.6-18.6-23.5c-1.3-6.6,0.4-13.1,5-19.4l0.1-0.1h0.1c5.1-2.1,126.5-51.6,145.7-46.9h0.2l0.1,0.2
		c0.1,0.2,11.1,16.8,27.1,16.8s21.6-8.3,21.7-8.4l0.2-0.3l0.4,0.1l68.8,18.5l12.9,36.8c3.9,11.1-2,23.4-13.1,27.3
		c-2.3,0.8-4.7,1.2-7.1,1.2h-33.9c-0.7,4.8-7.1,48.5-7.1,65.9L514.2,534.9L514.2,534.9z M405.3,519.8l107.9,14
		c0.1-18.8,7.1-65.4,7.2-65.9l0.1-0.4h34.8c2.3,0,4.6-0.4,6.7-1.1c10.6-3.7,16.2-15.4,12.5-26L561.8,404l-68-18.2
		c-1.2,1.6-7.3,8.6-22.3,8.6s-26.6-15.3-27.8-17.1c-19.3-4.2-140.1,45-144.8,46.9c-4.4,6-6,12.2-4.8,18.5c2.6,13,16.8,22.1,18,22.8
		c26.4,4,93.6-22.4,94.3-22.6l0.7-0.3L405.3,519.8L405.3,519.8z"/>
</g>
<g>
	<path class="st2" d="M477.9,405.7c-2.6,0-5.5-0.2-8.6-0.6c-33.4-4.2-40.6-28.1-40.7-28.4s0.1-0.5,0.3-0.6c0.3-0.1,0.5,0.1,0.6,0.3
		c0.1,0.2,7.2,23.5,39.9,27.6c32,4,38-15.1,38.1-15.3c0.1-0.3,0.4-0.4,0.6-0.3c0.3,0.1,0.4,0.4,0.3,0.6
		C508.4,389.3,503.3,405.7,477.9,405.7L477.9,405.7z"/>
	<path class="st2" d="M514.6,515.3C514.6,515.3,514.5,515.3,514.6,515.3L404.3,503c-0.3,0-0.5-0.3-0.4-0.5s0.3-0.5,0.5-0.4
		l110.2,12.3c0.3,0,0.5,0.3,0.4,0.5C515,515.1,514.8,515.3,514.6,515.3L514.6,515.3z"/>
</g>
<g>
	<path class="st7" d="M543.4,486.1L543.4,486.1c-16.4-2.3-27.9-17.5-25.6-34c0.3-1.8,0.7-3.6,1.3-5.4l13.5-40.1l44.9,6.4l0.2,43.2
		c0,16.6-13.4,30.1-30,30.1C546.3,486.4,544.9,486.3,543.4,486.1L543.4,486.1z"/>
	<path class="st2" d="M547.7,486.9c-1.4,0-2.9-0.1-4.3-0.3l0,0c-8.1-1.1-15.2-5.4-20.2-11.9c-4.9-6.5-7-14.6-5.8-22.7
		c0.3-1.9,0.7-3.7,1.3-5.5l13.7-40.5l45.7,6.5l0.2,43.6C578.3,473.1,564.6,486.8,547.7,486.9L547.7,486.9L547.7,486.9z M533.1,407.1
		l-13.4,39.7c-0.6,1.7-1,3.5-1.3,5.3c-1.1,7.8,0.9,15.6,5.6,21.9c4.8,6.3,11.7,10.4,19.5,11.5l0,0c1.4,0.2,2.8,0.3,4.2,0.3
		c16.3,0,29.5-13.3,29.5-29.6l-0.2-42.8L533.1,407.1L533.1,407.1z"/>
</g>
<g>
	<path class="st7" d="M531.4,446.2c0,0-29-38.2-23.8-39.8c3.4-1,12.4,4,18.4,7.8c2.7,1.7,6.2-0.3,6.6-3.7c1.3-10.3,3.5-29.3,4.4-43
		c1.4-19.8,6.8-20.5,10.3,13.1s5.5-29.1,9.8-28.5s2.7,35.5,6.3,37.6s4.3-33.5,11.3-34.7s0.7,34.6,2.4,36.7s6.3-23,9.2-22.9
		c10.4,0.4-7.9,75.8-10.2,80.6l0,0c0,0-6.4,10.6-24.9,8.5C551.3,458.2,539.6,458.2,531.4,446.2L531.4,446.2z"/>
	<path class="st2" d="M555.9,458.9c-1.5,0-3-0.1-4.6-0.3c-1,0-12.2-0.5-20.3-12.1c-2.7-3.6-26.1-34.5-24.4-39.7
		c0.1-0.5,0.5-0.8,0.9-0.9c3.5-1,12.2,3.7,18.9,7.9c1,0.6,2.3,0.7,3.4,0.2c1.3-0.6,2.3-2,2.5-3.5c1.2-10.1,3.5-29.1,4.4-43
		c0.5-6.5,1.5-14.2,4.1-14.2l0,0c3.5,0,5.8,14.9,7.1,27.4c0.7,6.8,1.3,8.8,1.6,9.4c0.8-1.5,1.8-9.5,2.7-16.1
		c1.5-12.4,2.7-20.6,4.4-21.9c0.3-0.2,0.6-0.3,0.8-0.2c2.5,0.4,3.2,7.9,3.9,20.2c0.5,7.4,1,16.7,2.5,17.5c1-0.1,2.2-7.1,3-12.2
		c1.7-10.2,3.6-21.8,7.9-22.5c0.7-0.1,1.4,0.1,1.9,0.6c3,2.7,2,15.3,1.3,25.5c-0.3,4.4-0.7,9.4-0.4,10.6c0.7-1,2-5.5,3.1-9.2
		c2.7-9.3,4.1-13.7,5.9-13.6c0.9,0,1.7,0.5,2.2,1.5c6.2,10.2-9.8,75.1-12,79.8C576.6,449.9,571,458.9,555.9,458.9L555.9,458.9z
		 M551,457.6h0.4c18,2,24.4-8.2,24.5-8.3c2.4-5,17.8-69.3,12-78.8c-0.4-0.6-0.9-1-1.4-1l0,0c-1.2,0-3.6,8.4-4.9,12.9
		c-2,7.1-2.9,9.9-4,10.1c-0.3,0.1-0.6,0-0.8-0.3c-0.7-0.8-0.5-3.8,0.1-11.6c0.7-8.9,1.7-22.2-1-24.6c-0.3-0.3-0.7-0.4-1.1-0.3
		c-3.6,0.6-5.6,12.8-7.1,21.7c-1.3,8.1-2.1,12.3-3.5,13c-0.3,0.1-0.7,0.1-1-0.1c-1.8-1.1-2.3-7.7-3-18.3c-0.5-8-1.2-19-3.1-19.3
		c-1.4,0.4-3.1,13.5-4,21.3c-1.7,13.6-2.3,17.1-3.7,17.1l0,0c-0.8,0-1.5-0.8-2.5-10.4c-2.2-20.9-4.9-26.5-6.1-26.5l0,0
		c-0.8,0-2.4,2.8-3.2,13.3c-1,13.9-3.2,32.9-4.4,43c-0.2,1.9-1.4,3.5-3,4.3c-1.5,0.7-3,0.6-4.4-0.2c-9-5.6-15.6-8.5-18-7.7
		c-0.1,0-0.2,0.1-0.2,0.2c-1.1,3.5,13.9,25.1,24.3,38.8l0,0C539.1,456.6,549.2,457.6,551,457.6L551,457.6L551,457.6z"/>
</g>
<path class="st9" d="M408.3,397.4c-1.3,0-2.4-2.8-2.6-6.4l-7.5-169c-0.2-4,0.9-7.7,2.3-8.1s2.8,2.4,2.9,6.4l7.4,169.1
	c0.2,4-0.8,7.6-2.3,8.1L408.3,397.4L408.3,397.4z"/>
<g>
	<path class="st8" d="M504.6,157.2c0,56.1-45.5,101.6-101.6,101.6c-19.5,0-37.6-5.5-53.1-14.9c-6.6-4.1-12.7-8.8-18.2-14.3
		c-18.7-18.4-30.3-44.1-30.3-72.4c0-56.1,45.5-101.6,101.6-101.6c19.4,0,37.6,5.5,53.1,14.9c6.6,4.1,12.7,8.8,18.2,14.3
		C493,103.2,504.6,128.8,504.6,157.2L504.6,157.2z"/>
	<path class="st2" d="M402.9,259.3c-18.9,0-37.3-5.2-53.3-15c-6.6-4-12.8-8.9-18.3-14.3c-19.7-19.4-30.5-45.2-30.5-72.8
		c0-56.3,45.8-102.1,102.1-102.1c18.9,0,37.3,5.2,53.3,15c6.6,4,12.8,8.9,18.3,14.3c19.7,19.3,30.5,45.2,30.5,72.8
		C505.1,213.5,459.3,259.3,402.9,259.3L402.9,259.3z M402.9,56c-55.8,0-101.1,45.4-101.1,101.1c0,27.3,10.7,52.9,30.2,72.1
		c5.5,5.4,11.6,10.2,18.1,14.2c15.8,9.7,34.1,14.9,52.8,14.9c55.8,0,101.1-45.4,101.1-101.1c0-27.3-10.7-52.9-30.2-72.1
		c-5.5-5.4-11.6-10.2-18.1-14.2C439.9,61.2,421.6,56,402.9,56z"/>
</g>
<g>
	
		<ellipse transform="matrix(0.7071 -0.7071 0.7071 0.7071 6.8588 330.9508)" class="st6" cx="402.9" cy="157.2" rx="82.1" ry="82.1"/>
	<path class="st2" d="M402.9,239.7c-21.1,0-42.3-8.1-58.4-24.1c-15.6-15.6-24.2-36.3-24.2-58.4s8.6-42.8,24.2-58.4l0.4,0.3l-0.4-0.3
		c32.2-32.2,84.6-32.2,116.8,0c15.6,15.6,24.2,36.3,24.2,58.4s-8.6,42.8-24.2,58.4C445.2,231.7,424.1,239.7,402.9,239.7L402.9,239.7
		z M402.9,75.6c-20.9,0-41.8,7.9-57.7,23.9c-15.4,15.4-23.9,35.9-23.9,57.7s8.5,42.3,23.9,57.7c31.8,31.8,83.6,31.8,115.4,0
		c15.4-15.4,23.9-35.9,23.9-57.7s-8.5-42.3-23.9-57.7C444.7,83.6,423.8,75.6,402.9,75.6L402.9,75.6z"/>
</g>
<g>
	<path class="st2" d="M456.2,143.3c-6.7-9.1-19.7,0-23.6,9.6c-1,2.4-1.8,4.9-2.1,7.5l-4.3-29.2l-3.4-27.7c-0.8-5-5.5-8.4-10.6-7.6
		c-4.8,0.8-8.1,5.1-7.7,9.9l-0.9-6.9c-0.6-5.1-5.2-8.6-10.3-8s-8.6,5.2-8,10.3l1.2,9.6c-0.6-5.1-5.2-8.6-10.3-8
		c-0.4,0-0.8,0.1-1.1,0.2l0,0c-4.5,1.2-7.4,5.5-6.9,10.1l1.5,12c-0.6-5-5.2-8.6-10.3-8c-0.4,0.1-0.8,0.1-1.2,0.2l0,0
		c-4.5,1.1-7.4,5.4-6.9,10l2.9,24l2.1,17.2l2.8,22.6c2,16.1,8.3,25.2,17.6,29.3c14.3,6.3,40.6,6.4,52.4-3.2
		c10.3-8.4,17-28.5,18.5-41S459,147,456.2,143.3z"/>
	<path class="st2" d="M401.1,225.1c-8.9,0-17.8-1.6-24.4-4.5c-10.1-4.4-16-14.2-17.9-29.7l-7.8-63.8c-0.6-4.8,2.5-9.3,7.2-10.6
		c0.4-0.1,0.8-0.2,1.2-0.2c3.8-0.5,7.3,1.3,9.3,4.3l-1-7.8c-0.6-4.8,2.5-9.4,7.3-10.6c0.4-0.1,0.8-0.2,1.2-0.2
		c3.8-0.5,7.4,1.3,9.3,4.3l-0.7-5.4c-0.7-5.3,3.1-10.2,8.4-10.8c2.6-0.3,5.1,0.4,7.2,2c2,1.6,3.4,3.9,3.7,6.5l0.4,3
		c1.1-3.3,4-5.8,7.6-6.4c2.6-0.4,5.1,0.2,7.3,1.7c2.1,1.5,3.5,3.8,3.9,6.3l3.4,27.7l3.8,26.2c0.4-1.6,0.9-3.1,1.5-4.6
		c2.8-6.8,9.6-12.8,15.6-13.5c3.6-0.4,6.6,0.9,8.8,3.9l0,0c1.6,2.2-0.4,7.8-3,14.9c-2.1,5.8-4.6,12.4-5.3,18.1
		c-1.4,11.2-7.7,32.4-18.7,41.3C423,222.7,412,225.1,401.1,225.1L401.1,225.1z M360.6,117.3c-0.4,0-0.7,0-1.1,0.1s-0.8,0.1-1.1,0.2
		c-4.2,1.1-7,5.1-6.5,9.5l7.8,63.8c1.9,15.2,7.5,24.6,17.3,28.9c14.4,6.3,40.2,6.3,51.9-3.1c10.8-8.7,17-29.6,18.4-40.7
		c0.7-5.8,3.2-12.5,5.3-18.3c2.3-6.3,4.5-12.2,3.2-14c-2-2.7-4.7-3.9-7.9-3.5c-5.7,0.7-12.2,6.4-14.9,12.9c-1,2.4-1.7,4.8-2,7.3
		l-0.5,3.7l-4.8-32.9l-3.4-27.7c-0.4-2.3-1.6-4.3-3.5-5.7c-1.9-1.4-4.2-1.9-6.5-1.5c-4.5,0.7-7.7,4.8-7.3,9.3l-1,0.1l-0.9-6.9
		c-0.3-2.3-1.5-4.4-3.3-5.8s-4.1-2.1-6.4-1.8c-4.8,0.6-8.2,4.9-7.6,9.7l1.2,9.6l0,0l0,0l-1,0.1c-0.6-4.8-5-8.2-9.7-7.6
		c-0.4,0-0.7,0.1-1.1,0.2c-4.2,1.1-7,5.2-6.5,9.5l1.5,12l-1,0.1C368.7,120.6,365,117.3,360.6,117.3L360.6,117.3z"/>
</g>
<g>
	<path class="st8" d="M474.2,84.8L349.9,243.9c-6.6-4.1-12.7-8.8-18.2-14.3L456,70.5C462.6,74.6,468.7,79.3,474.2,84.8L474.2,84.8z"
		/>
	<path class="st2" d="M350,244.5l-0.4-0.2c-6.6-4-12.8-8.9-18.3-14.3l-0.3-0.3l0.3-0.4L455.9,69.8l0.4,0.2c6.6,4,12.8,8.9,18.3,14.3
		l0.3,0.3L350,244.5L350,244.5z M332.3,229.6c5.3,5.2,11.2,9.8,17.4,13.6L473.6,84.8c-5.3-5.2-11.2-9.8-17.4-13.6L332.3,229.6z"/>
</g>
<g>
	<path class="st2" d="M210,247.9H107.9v-46.1L210,80.3h48.8v124.1h25.3V248h-25.3v37.7H210L210,247.9L210,247.9z M210,204.4v-63.5
		l-54,63.5H210z"/>
	<path class="st2" d="M259.4,286.3h-49.8v-37.9H107.4v-46.8l0.1-0.1L209.8,79.8h49.6V204h25.3v44.6h-25.3V286.3L259.4,286.3z
		 M210.6,285.3h47.8v-37.7h25.3V205h-25.3V80.8h-48.1L108.4,201.9v45.4h102.2V285.3L210.6,285.3z M210.5,204.9h-55.6l55.6-65.4
		V204.9z M157.1,203.9h52.4v-61.7L157.1,203.9z"/>
</g>
<g>
	<path class="st2" d="M658.3,80.3v205.3h-56.8V151.1c-8.3,6.4-17.1,12.1-26.5,16.9c-10.4,5-21.2,9.2-32.3,12.4v-46
		c19.1-6.2,33.9-13.6,44.5-22.2s19-19.5,24.8-31.9L658.3,80.3L658.3,80.3z"/>
	<path class="st2" d="M658.8,286.1H601v-134c-8.1,6.2-16.7,11.7-25.7,16.4c-10.4,5-21.3,9.2-32.4,12.4l-0.6,0.2v-47l0.3-0.1
		c18.9-6.1,33.8-13.6,44.3-22.1c10.4-8.5,19-19.5,24.6-31.8l0.1-0.3h47.1v206.3H658.8z M602,285.1h55.8V80.8h-45.5
		c-5.7,12.3-14.3,23.3-24.8,31.8c-10.5,8.6-25.4,16-44.3,22.2v45c10.8-3.2,21.4-7.3,31.6-12.2c9.3-4.8,18.1-10.5,26.4-16.9l0.8-0.6
		V285.1L602,285.1z"/>
</g>
<path class="st2" d="M108.4,294.1v-31.2H131v3.6h-18.5v9.6h17.3v3.7h-17.3v10.6h19.1v3.7L108.4,294.1L108.4,294.1z"/>
<path class="st2" d="M136.9,294.1v-22.6h3.4v3.4c0.6-1.2,1.4-2.3,2.4-3.2c0.7-0.5,1.6-0.8,2.5-0.8c1.4,0,2.8,0.5,4,1.3l-1.3,3.5
	c-0.8-0.5-1.8-0.8-2.8-0.8c-0.8,0-1.6,0.3-2.3,0.8s-1.2,1.3-1.4,2.1c-0.4,1.5-0.6,3-0.6,4.5v11.8L136.9,294.1L136.9,294.1z"/>
<path class="st2" d="M151.5,294.1v-22.6h3.4v3.4c0.6-1.3,1.5-2.4,2.5-3.2c0.7-0.5,1.6-0.8,2.4-0.8c1.4,0,2.8,0.5,3.9,1.3l-1.3,3.5
	c-0.9-0.5-1.8-0.8-2.8-0.8c-0.8,0-1.6,0.3-2.3,0.8s-1.2,1.3-1.4,2.1c-0.4,1.5-0.6,3-0.6,4.5v11.9L151.5,294.1L151.5,294.1z"/>
<path class="st2" d="M164.6,282.8c0-4.2,1.1-7.3,3.4-9.3c2-1.7,4.5-2.6,7.1-2.5c2.9-0.1,5.6,1,7.6,3.1c2.1,2.3,3.2,5.3,3,8.4
	c0.1,2.4-0.4,4.7-1.3,6.9c-0.9,1.6-2.2,3-3.8,3.9c-1.7,0.9-3.6,1.4-5.5,1.4c-2.9,0.1-5.7-1-7.7-3C165.4,289.2,164.4,286,164.6,282.8
	L164.6,282.8z M168.6,282.8c-0.2,2.3,0.5,4.6,1.9,6.5c2.3,2.6,6.3,2.9,8.9,0.6l0,0c0.2-0.2,0.4-0.4,0.6-0.6c1.4-1.9,2.1-4.3,1.9-6.6
	c0.2-2.3-0.5-4.5-1.9-6.4c-2.3-2.6-6.3-2.9-9-0.6l0,0c-0.2,0.2-0.4,0.4-0.6,0.6C169,278.2,168.4,280.5,168.6,282.8L168.6,282.8z"/>
<path class="st2" d="M190.3,294.1v-22.6h3.4v3.4c0.6-1.2,1.4-2.3,2.4-3.2c0.7-0.5,1.6-0.8,2.5-0.8c1.4,0,2.8,0.5,3.9,1.3l-1.3,3.5
	c-0.9-0.5-1.8-0.8-2.8-0.8c-0.8,0-1.6,0.3-2.3,0.8s-1.2,1.3-1.4,2.1c-0.4,1.5-0.7,3-0.6,4.5v11.8L190.3,294.1L190.3,294.1z"/>
<path class="st2" d="M122.7,333v-3.3c-1.6,2.5-4.3,3.9-7.2,3.9c-1.3,0-2.6-0.3-3.7-0.8c-1-0.4-1.9-1.1-2.6-1.9
	c-0.6-0.9-1-1.8-1.2-2.9c-0.2-1.2-0.3-2.4-0.2-3.6v-14h3.8v12.5c-0.1,1.3,0,2.7,0.2,4c0.2,1,0.8,1.8,1.5,2.4
	c0.8,0.6,1.9,0.9,2.9,0.9c1.1,0,2.3-0.3,3.2-0.9c1-0.5,1.7-1.4,2.2-2.4c0.5-1.4,0.7-2.9,0.6-4.4v-12.1h3.9V333H122.7L122.7,333z"/>
<path class="st2" d="M132.2,333v-22.6h3.4v3.2c1.6-2.4,4.3-3.9,7.2-3.7c1.3,0,2.6,0.2,3.8,0.7c1,0.4,1.9,1.1,2.6,1.9
	c0.6,0.9,1,1.8,1.2,2.9c0.2,1.2,0.3,2.5,0.2,3.7V333h-3.8v-13.7c0.1-1.2-0.1-2.3-0.5-3.4c-0.3-0.8-0.9-1.4-1.6-1.9
	c-0.8-0.5-1.7-0.7-2.7-0.7c-1.6,0-3.1,0.5-4.2,1.5c-1.2,1-1.7,3-1.7,5.9v12.4L132.2,333z"/>
<path class="st2" d="M171.2,330.2c-1.2,1.1-2.6,2-4.1,2.5c-1.4,0.5-2.8,0.8-4.2,0.8c-2.1,0.1-4.1-0.5-5.7-1.8
	c-1.3-1.2-2.1-2.9-2-4.6c0-2.1,1-4.1,2.8-5.2c0.9-0.6,1.8-1,2.8-1.3c1.1-0.3,2.3-0.4,3.4-0.6c2.3-0.2,4.6-0.6,6.9-1.3v-1
	c0.1-1.2-0.3-2.4-1.1-3.3c-1.3-1-2.8-1.4-4.4-1.3c-1.4-0.1-2.8,0.2-4,0.9c-1,0.9-1.7,2.1-1.9,3.4l-3.7-0.5c0.3-1.4,0.8-2.7,1.7-3.9
	c0.9-1.1,2.1-1.9,3.4-2.3c1.7-0.6,3.4-0.8,5.1-0.8c1.6,0,3.2,0.2,4.7,0.7c1,0.3,1.9,0.9,2.7,1.7c0.6,0.8,1,1.6,1.2,2.6
	c0.2,1.2,0.2,2.4,0.2,3.5v5.1c-0.1,2.3,0,4.6,0.2,6.9c0.2,1,0.5,1.9,1,2.7h-4C171.6,332.2,171.3,331.2,171.2,330.2L171.2,330.2z
	 M170.8,321.6c-2,0.7-4.1,1.2-6.3,1.4c-1.2,0.1-2.3,0.4-3.4,0.8c-0.6,0.3-1.1,0.7-1.5,1.3c-0.4,0.5-0.5,1.2-0.5,1.8
	c0,1,0.4,1.9,1.1,2.6c1,0.8,2.2,1.1,3.4,1c1.4,0,2.8-0.3,4-1c1.1-0.6,1.9-1.5,2.5-2.6c0.5-1.2,0.7-2.5,0.6-3.8L170.8,321.6
	L170.8,321.6z"/>
<path class="st2" d="M195.6,333v-3.3c-1.6,2.5-4.3,3.9-7.2,3.9c-1.3,0-2.6-0.3-3.7-0.8c-1-0.4-1.9-1.1-2.6-1.9
	c-0.6-0.9-1-1.8-1.2-2.9c-0.2-1.2-0.3-2.4-0.2-3.6v-14h3.8v12.5c0,1.3,0,2.7,0.2,4c0.2,1,0.8,1.8,1.5,2.4c0.9,0.6,1.9,0.9,2.9,0.9
	c1.1,0,2.3-0.3,3.3-0.9c1-0.5,1.7-1.4,2.1-2.4c0.5-1.4,0.7-2.9,0.6-4.4v-12.1h3.9V333H195.6L195.6,333z"/>
<path class="st2" d="M213.4,329.5l0.6,3.4c-0.9,0.2-1.9,0.3-2.9,0.4c-1.1,0-2.2-0.2-3.2-0.7c-0.7-0.4-1.3-1-1.6-1.7
	c-0.4-1.5-0.6-3-0.5-4.5v-13H203v-3.1h2.8v-5.6l3.8-2.3v7.9h3.9v3h-3.9v13.3c0,0.7,0,1.4,0.2,2.1c0.1,0.3,0.4,0.6,0.7,0.7
	c0.4,0.2,0.9,0.3,1.3,0.3C212.3,329.7,212.8,329.7,213.4,329.5z"/>
<path class="st2" d="M217.2,333v-31.3h3.8v11.2c1.7-2,4.2-3.2,6.8-3.1c1.5,0,3,0.3,4.4,1c1.2,0.6,2.1,1.5,2.7,2.7
	c0.6,1.6,0.9,3.4,0.8,5.1V333h-3.9v-14.4c0.1-1.5-0.3-3-1.3-4.2c-0.9-0.9-2.2-1.4-3.5-1.3c-1.1,0-2.2,0.3-3.2,0.9
	c-0.9,0.5-1.7,1.4-2.1,2.4c-0.5,1.3-0.7,2.8-0.7,4.2V333H217.2L217.2,333z"/>
<path class="st2" d="M240,321.6c0-4.2,1.1-7.3,3.4-9.3c2-1.7,4.5-2.6,7.1-2.5c2.9-0.1,5.7,1,7.7,3.1c2.1,2.3,3.2,5.4,3,8.5
	c0.1,2.4-0.3,4.7-1.3,6.9c-0.9,1.7-2.2,3-3.8,3.9c-1.7,0.9-3.6,1.4-5.5,1.4c-2.9,0.1-5.7-1-7.7-3C240.8,328,239.8,324.9,240,321.6
	L240,321.6z M244,321.6c-0.2,2.3,0.5,4.6,1.9,6.5c1.2,1.4,2.9,2.2,4.8,2.2c1.8,0,3.6-0.8,4.8-2.2c1.4-1.9,2.1-4.3,1.9-6.6
	c0.2-2.3-0.5-4.5-1.9-6.4c-2.3-2.6-6.3-2.9-8.9-0.6c-0.2,0.2-0.4,0.4-0.6,0.6C244.5,317,243.8,319.3,244,321.6L244,321.6z"/>
<path class="st2" d="M265.6,333v-22.6h3.4v3.4c0.6-1.2,1.4-2.3,2.4-3.2c0.7-0.5,1.6-0.8,2.5-0.8c1.4,0,2.8,0.5,4,1.2l-1.3,3.6
	c-0.8-0.5-1.8-0.8-2.8-0.8c-0.8,0-1.6,0.3-2.3,0.8c-0.7,0.5-1.2,1.3-1.4,2.1c-0.4,1.5-0.6,3-0.6,4.5V333H265.6L265.6,333z"/>
<path class="st2" d="M280.3,306.1v-4.4h3.8v4.4H280.3z M280.3,333v-22.6h3.8V333H280.3L280.3,333z"/>
<path class="st2" d="M287.9,333v-3.1l14.4-16.6c-1.7,0-3.1,0.1-4.3,0.1h-9.2v-3.1h18.5v2.6L295,327.3l-2.4,2.6
	c1.7-0.1,3.3-0.2,4.8-0.2H308v3.3L287.9,333L287.9,333z"/>
<path class="st2" d="M327.3,325.7l4,0.5c-0.5,2.1-1.7,4-3.4,5.4c-1.9,1.3-4.2,2-6.5,1.9c-3,0.1-5.8-1-7.9-3.1
	c-2.1-2.4-3.1-5.5-2.9-8.6c-0.2-3.2,0.9-6.4,3-8.9c2-2.1,4.7-3.3,7.6-3.1c2.8-0.1,5.5,1,7.4,3.1c2,2.4,3.1,5.5,2.9,8.7v1h-16.9
	c0,2.1,0.8,4.1,2.1,5.7c1.2,1.3,3,2,4.7,2c1.3,0,2.6-0.4,3.6-1.1C326.1,328.3,326.9,327,327.3,325.7L327.3,325.7z M314.7,319.5h12.6
	c0-1.5-0.5-3-1.4-4.3c-1.1-1.5-2.9-2.3-4.8-2.2c-1.6-0.1-3.3,0.6-4.4,1.7C315.4,316,314.7,317.7,314.7,319.5L314.7,319.5z"/>
<path class="st2" d="M350.8,333v-3c-1.3,2.2-3.8,3.5-6.3,3.4c-1.8,0-3.5-0.5-5-1.5s-2.8-2.5-3.5-4.2c-0.9-1.9-1.3-4-1.2-6.1
	c0-2.1,0.4-4.2,1.1-6.2c0.7-1.7,1.9-3.2,3.4-4.2s3.3-1.5,5-1.5c1.3,0,2.5,0.3,3.7,0.9c1,0.5,1.9,1.3,2.6,2.3v-11.2h3.8V333H350.8
	L350.8,333z M338.6,321.7c-0.2,2.3,0.5,4.6,1.8,6.5c1,1.3,2.6,2.1,4.3,2.2c1.7,0,3.3-0.8,4.3-2.1c1.3-1.8,1.9-4,1.7-6.3
	c0.2-2.4-0.4-4.8-1.7-6.9c-1-1.4-2.7-2.2-4.4-2.2c-1.7,0-3.3,0.8-4.3,2.1C339.1,317,338.4,319.3,338.6,321.7z"/>
<g>
	<path class="st7" d="M429.5,398.4c0.5-1.5,20.7-8.6,18-11.8s-21,6.6-20.9,4.2s18.3-11.6,17.4-14s-33.5,14.7-17.3,3.2s14.2-14,3.7-9
		c-7.2,3.4-17.5,7.7-23.2,10c-1.3,0.6-2.9,0.1-3.5-1.2c-0.2-0.4-0.3-0.7-0.3-1.1c0.2-4.1,0.2-10.2-1.3-11.6
		c-2.3-2.2-13.5,23.5-13.5,23.5l0,0c-6.9-0.8-48.3,11.2-76,22.6c-17.1,7-27.9,22.9-18.8,39l1.7,3c9.4,16.6,37.7,16.9,52.6,5.1
		c22-17.4,47.6-40.8,51.5-45.8l0,0c3.1-0.2,46.8-12.5,44-18C443,395,428.9,399.9,429.5,398.4L429.5,398.4z"/>
	<path class="st2" d="M322.8,469c-2.8,0-5.6-0.3-8.3-0.8c-8.8-1.7-15.7-6.3-19.4-12.8l-1.7-3c-3.6-6.4-4.4-13.2-2.1-19.7
		c2.9-8.4,10.6-15.7,21.1-20c27.8-11.4,68.1-23,75.9-22.6c2-4.5,10.1-23,13.2-23.6c0.3-0.1,0.7,0,0.9,0.3c1.3,1.2,1.8,5.3,1.5,12
		c0,0.3,0.1,0.6,0.2,0.9c0.5,1.1,1.8,1.5,2.9,1c4.4-1.8,15.5-6.4,23.2-10c5.1-2.4,8-3.1,8.7-1.9c0.9,1.5-3.1,5.5-12,11.8
		c-2.4,1.7-3.4,2.6-3.9,3c1.5-0.4,5.3-1.9,8.4-3.2c7-2.9,11.3-4.6,12.5-4c0.3,0.1,0.4,0.3,0.4,0.4c0.6,1.5-2.4,3.6-9.2,8
		c-3.1,2-7.7,5-8.1,6.1c0.8,0.1,4.1-1.1,6.8-2c7.2-2.6,12.4-4.3,14-2.4c0.3,0.4,0.4,0.8,0.3,1.3c-0.5,2.2-5.8,4.9-12.7,8.1
		c-1.9,0.9-3.9,1.8-4.9,2.4c1.2-0.2,3.3-0.7,5-1.1c5.7-1.4,8.1-1.8,8.6-0.8c0.2,0.4,0.3,1-0.1,1.8c-3.4,6-39.7,16.3-44.1,16.9
		c-4.4,5.4-29.9,28.6-51.5,45.7C341.7,466,332.2,469,322.8,469L322.8,469z M387.8,391.1c-8.4,0-47.8,11.4-75.1,22.6
		c-10.2,4.2-17.7,11.3-20.5,19.4c-2.1,6.2-1.5,12.7,2,18.9l1.7,3c3.5,6.2,10.2,10.6,18.7,12.3c11.6,2.3,24.7-0.6,33.2-7.3
		c21.8-17.2,47.5-40.7,51.5-45.7l0.1-0.2h0.2c3.3-0.2,40.3-10.8,43.5-16.4c0.3-0.4,0.2-0.7,0.1-0.8c-0.6-0.3-4.9,0.7-7.5,1.4
		c-4.9,1.2-6.2,1.4-6.6,0.9c-0.2-0.2-0.2-0.4-0.1-0.7l0,0c0.2-0.6,1.7-1.4,6-3.4c4.7-2.2,11.7-5.5,12.1-7.4c0-0.2,0-0.3-0.1-0.5
		c-1.3-1.6-8.3,1-12.9,2.7c-5,1.8-7,2.5-7.8,1.9c-0.2-0.2-0.4-0.4-0.3-0.7c0-1.3,2.6-3.1,8.6-7c3.3-2.1,8.7-5.6,8.8-6.7
		c-1.2-0.2-7.5,2.4-11.6,4.1c-8.3,3.4-9.7,3.8-10.1,3c-0.3-0.6-0.1-1.2,4.6-4.6c10.1-7.2,11.9-10,11.7-10.5c-0.2-0.2-2-0.3-7.4,2.3
		c-7.7,3.6-18.8,8.2-23.2,10c-1.5,0.8-3.4,0.1-4.2-1.4c-0.2-0.4-0.3-0.9-0.3-1.3c0.3-6.1-0.2-10.3-1.2-11.3
		c-1.5-0.1-7.8,12-12.7,23.4l-0.1,0.3h-0.4C388.3,391.1,388.1,391.1,387.8,391.1L387.8,391.1z"/>
</g>
<path class="st2" d="M389.8,589.5c-8.8,0-15.2-2.5-15.3-2.5c-0.3-0.1-0.4-0.4-0.3-0.7s0.4-0.4,0.6-0.3c0.1,0,9.3,3.7,20.8,2.2
	c10.6-1.4,25.3-7.6,35.5-29.3l14.4-30.3c0.1-0.3,0.4-0.3,0.7-0.2c0.3,0.1,0.4,0.4,0.2,0.7L432,559.4
	C420.4,584.4,402.5,589.5,389.8,589.5L389.8,589.5z"/>
<path class="st2" d="M522.6,607.9c-9,0-17.7-3.2-22.4-5.2c-3.9-1.7-7.3-4.3-9.9-7.5c-16.7-20.8-10.9-60.5-10.8-61
	c0-0.3,0.3-0.5,0.6-0.4c0.3,0,0.5,0.3,0.4,0.6c-0.1,0.4-5.8,39.7,10.6,60.2c2.5,3.1,5.8,5.6,9.5,7.2c5,2.2,14.7,5.7,24.2,5
	c0.3,0,0.5,0.2,0.5,0.5s-0.2,0.5-0.5,0.5C524.2,607.8,523.4,607.9,522.6,607.9L522.6,607.9z"/>
<path class="st2" d="M388.6,627.4c-0.3,0-0.5-0.2-0.5-0.5v-37.3c0-0.3,0.2-0.5,0.5-0.5s0.5,0.2,0.5,0.5v37.3
	C389.1,627.2,388.9,627.4,388.6,627.4z"/>
<path class="st2" d="M501.9,627.3c-0.3,0-0.5-0.2-0.5-0.5l-1.5-24.5c0-0.3,0.2-0.5,0.5-0.5s0.5,0.2,0.5,0.5l1.5,24.5
	C502.4,627,502.2,627.2,501.9,627.3L501.9,627.3z"/>
<path class="st2" d="M770,627.6H80.6c-0.3,0-0.5-0.2-0.5-0.5s0.2-0.5,0.5-0.5H770c0.3,0,0.5,0.2,0.5,0.5S770.3,627.6,770,627.6z"/>
<g>
	<path class="st10" d="M150.6,359.9c24.9,19.5,60.2,28.3,93.2,23.4c10.3,38.6,13.1,79.7,4.1,118.6c-9.2,39.9-41.7,80.7-97.3,96.3
		c-55.6-15.5-88-56.4-97.3-96.3c-9-38.9-6.2-80,4.1-118.6C90.4,388.2,125.8,379.4,150.6,359.9"/>
</g>
<g>
	<path class="st11" d="M150.6,359.9c24.9,19.5,60.2,28.3,93.2,23.4c10.3,38.6,13.1,79.7,4.1,118.6c-9.2,39.9-41.7,80.7-97.3,96.3
		V359.9"/>
</g>
<g>
	<path class="st8" d="M236.7,499.3c-2.1,9.2-5.5,18.2-10.2,26.8c-4.9,9.1-11,17.5-18.2,25.1c-7.7,8.1-16.5,15.2-26.3,21.1
		c-9.6,5.8-20.1,10.4-31.4,13.9c-11.2-3.4-21.8-8.1-31.4-13.9c-9.8-5.9-18.6-13-26.3-21.1c-7.2-7.6-13.3-16.1-18.2-25.1
		c-4.6-8.6-8.1-17.7-10.2-26.8c-4.1-17.7-5.7-36.7-4.9-56.3c0.7-15.3,2.8-31.2,6.5-47.1c3.1,0.2,6.3,0.3,9.5,0.3
		c14.9,0,29.6-2.3,43.7-7c11.4-3.7,21.9-8.8,31.3-15.1c9.4,6.3,19.9,11.4,31.3,15.1c14.1,4.6,28.8,7,43.7,7c3.1,0,6.3-0.1,9.5-0.3
		c3.7,15.9,5.8,31.8,6.5,47.1C242.4,462.6,240.8,481.5,236.7,499.3z"/>
</g>
<g>
	<path class="st12" d="M236.7,499.3c-2.1,9.2-5.5,18.2-10.2,26.8c-4.9,9.1-11,17.5-18.2,25.1c-7.7,8.1-16.5,15.2-26.3,21.1
		c-9.6,5.8-20.1,10.4-31.4,13.9v-212c9.4,6.3,19.9,11.4,31.3,15.1c14.1,4.6,28.8,7,43.7,7c3.1,0,6.3-0.1,9.5-0.3
		c3.7,15.9,5.8,31.8,6.5,47.1C242.4,462.6,240.8,481.5,236.7,499.3z"/>
</g>
<g>
	<ellipse class="st13" cx="150.6" cy="618.9" rx="53" ry="6.2"/>
</g>
<g>
	<g>
		<path class="st1" d="M96.7,475v-61.6h11l26.5,47.4l-1,1.1v-48.5h9.8V475h-11.1l-26.4-46.7l1-1.1V475H96.7z"/>
		<path class="st1" d="M178.2,475.6c-4.4,0-8.3-0.9-11.6-2.8c-3.3-1.9-5.9-4.5-7.7-7.9c-1.8-3.4-2.7-7.4-2.7-11.9v-17.5
			c0-4.6,0.9-8.6,2.7-12c1.8-3.4,4.4-6,7.7-7.9c3.3-1.9,7.2-2.8,11.6-2.8c4.4,0,8.3,0.9,11.6,2.8c3.3,1.9,5.9,4.5,7.7,7.9
			c1.8,3.4,2.7,7.4,2.7,12v17.5c0,4.5-0.9,8.5-2.7,11.9c-1.8,3.4-4.4,6.1-7.7,7.9C186.6,474.7,182.7,475.6,178.2,475.6z
			 M178.2,465.6c3.5,0,6.4-1.1,8.5-3.4c2.1-2.3,3.2-5.3,3.2-9v-18.1c0-3.8-1.1-6.8-3.2-9c-2.1-2.2-4.9-3.4-8.5-3.4
			c-3.5,0-6.3,1.1-8.5,3.4c-2.1,2.2-3.2,5.2-3.2,9v18.1c0,3.7,1.1,6.7,3.2,9C171.9,464.5,174.7,465.6,178.2,465.6z"/>
	</g>
</g>
<path class="st10" d="M254.7,542.3H44.2c-14.1,0-25.6-11.5-25.6-25.6v0c0-14.1,11.5-25.6,25.6-25.6h210.5
	c14.1,0,25.6,11.5,25.6,25.6v0C280.3,530.8,268.8,542.3,254.7,542.3z"/>
<g>
	<g>
		<path class="st1" d="M68.7,532.9l12.4-33H85l12.4,33h-5.8L83,508.3l-8.5,24.6H68.7z M74.5,526.6v-5.2h17.4v5.2H74.5z"/>
		<path class="st1" d="M113,533.2c-2.4,0-4.5-0.5-6.2-1.5c-1.8-1-3.1-2.4-4.1-4.3s-1.4-4-1.4-6.6v-9.1c0-2.5,0.5-4.7,1.4-6.6
			s2.3-3.3,4.1-4.3c1.8-1,3.8-1.5,6.2-1.5c2,0,3.8,0.4,5.4,1.3s2.9,2.1,4,3.7c1.1,1.6,1.8,3.5,2.2,5.7H119c-0.3-1.1-0.7-2-1.3-2.8
			c-0.6-0.8-1.3-1.4-2.1-1.8c-0.8-0.4-1.7-0.6-2.6-0.6c-1.9,0-3.4,0.6-4.5,1.9s-1.6,2.9-1.6,5.1v9.1c0,2.1,0.5,3.8,1.6,5.1
			s2.6,1.9,4.5,1.9c1.4,0,2.7-0.5,3.8-1.4c1.1-0.9,1.9-2.2,2.2-3.9h5.6c-0.4,2.2-1.1,4.1-2.2,5.7s-2.4,2.8-4,3.7
			C116.8,532.8,115,533.2,113,533.2z"/>
		<path class="st1" d="M141.7,533.2c-2.4,0-4.5-0.5-6.2-1.5c-1.8-1-3.1-2.4-4.1-4.3s-1.4-4-1.4-6.6v-9.1c0-2.5,0.5-4.7,1.4-6.6
			s2.3-3.3,4.1-4.3c1.8-1,3.8-1.5,6.2-1.5c2,0,3.8,0.4,5.4,1.3s2.9,2.1,4,3.7c1.1,1.6,1.8,3.5,2.2,5.7h-5.6c-0.3-1.1-0.7-2-1.3-2.8
			c-0.6-0.8-1.3-1.4-2.1-1.8c-0.8-0.4-1.7-0.6-2.6-0.6c-1.9,0-3.4,0.6-4.5,1.9s-1.6,2.9-1.6,5.1v9.1c0,2.1,0.5,3.8,1.6,5.1
			s2.6,1.9,4.5,1.9c1.4,0,2.7-0.5,3.8-1.4c1.1-0.9,1.9-2.2,2.2-3.9h5.6c-0.4,2.2-1.1,4.1-2.2,5.7s-2.4,2.8-4,3.7
			C145.5,532.8,143.7,533.2,141.7,533.2z"/>
		<path class="st1" d="M159.4,532.9v-33h5.4v33H159.4z M161.7,505.1v-5.2h19.4v5.2H161.7z M161.7,519.1v-5.2h16.9v5.2H161.7z
			 M161.7,532.9v-5.2h19.4v5.2H161.7z"/>
		<path class="st1" d="M197.4,533.2c-1.6,0-3.1-0.2-4.6-0.5c-1.5-0.3-2.8-0.8-4.1-1.4c-1.3-0.6-2.4-1.4-3.5-2.2l2.9-4.3
			c1.3,1.1,2.7,1.9,4.3,2.4c1.6,0.6,3.3,0.8,5,0.8c2.2,0,3.9-0.4,5.1-1.2c1.2-0.8,1.8-1.9,1.8-3.3v0c0-1.1-0.3-2-0.9-2.5
			c-0.6-0.6-1.4-1-2.4-1.3c-1-0.3-2.1-0.5-3.3-0.7c-1.3-0.2-2.5-0.4-3.8-0.7s-2.5-0.8-3.6-1.4s-2-1.5-2.6-2.7c-0.7-1.2-1-2.7-1-4.7
			v0c0-3.1,1-5.6,3.1-7.3c2.1-1.7,5-2.6,8.8-2.6c1.8,0,3.5,0.3,5.3,0.9c1.8,0.6,3.5,1.4,5.1,2.6l-2.6,4.5c-1.3-0.9-2.6-1.6-3.9-2.1
			c-1.3-0.5-2.6-0.7-3.9-0.7c-2.1,0-3.7,0.4-4.8,1.1c-1.1,0.8-1.7,1.8-1.7,3.2v0c0,1.1,0.3,2,1,2.6c0.7,0.6,1.6,1,2.6,1.3
			c1.1,0.3,2.3,0.6,3.5,0.8c1.2,0.2,2.5,0.5,3.7,0.9c1.2,0.3,2.4,0.8,3.4,1.5c1,0.7,1.8,1.5,2.4,2.7c0.6,1.1,0.9,2.6,0.9,4.5v0
			c0,3.1-1.1,5.5-3.2,7.2C204.3,532.4,201.3,533.2,197.4,533.2z"/>
		<path class="st1" d="M226,533.2c-1.6,0-3.1-0.2-4.6-0.5c-1.5-0.3-2.8-0.8-4.1-1.4c-1.3-0.6-2.4-1.4-3.5-2.2l2.9-4.3
			c1.3,1.1,2.7,1.9,4.3,2.4c1.6,0.6,3.3,0.8,5,0.8c2.2,0,3.9-0.4,5.1-1.2c1.2-0.8,1.8-1.9,1.8-3.3v0c0-1.1-0.3-2-0.9-2.5
			c-0.6-0.6-1.4-1-2.4-1.3c-1-0.3-2.1-0.5-3.3-0.7c-1.3-0.2-2.5-0.4-3.8-0.7s-2.5-0.8-3.6-1.4s-2-1.5-2.6-2.7c-0.7-1.2-1-2.7-1-4.7
			v0c0-3.1,1-5.6,3.1-7.3c2.1-1.7,5-2.6,8.8-2.6c1.8,0,3.5,0.3,5.3,0.9c1.8,0.6,3.5,1.4,5.1,2.6l-2.6,4.5c-1.3-0.9-2.6-1.6-3.9-2.1
			c-1.3-0.5-2.6-0.7-3.9-0.7c-2.1,0-3.7,0.4-4.8,1.1c-1.1,0.8-1.7,1.8-1.7,3.2v0c0,1.1,0.3,2,1,2.6c0.7,0.6,1.6,1,2.6,1.3
			c1.1,0.3,2.3,0.6,3.5,0.8c1.2,0.2,2.5,0.5,3.7,0.9c1.2,0.3,2.4,0.8,3.4,1.5c1,0.7,1.8,1.5,2.4,2.7c0.6,1.1,0.9,2.6,0.9,4.5v0
			c0,3.1-1.1,5.5-3.2,7.2C232.9,532.4,229.9,533.2,226,533.2z"/>
	</g>
</g>
<image style="overflow:visible;" width="159" height="72" xlink:href="khajna_logo.jpg"  transform="matrix(0.5689 0 0 0.5689 570.2687 578.7)">
</image>
</svg>
